HIERARCHY
ROOT Hips
{
  OFFSET 13.9192 87.0099 7.45665
  CHANNELS 6 Xposition Yposition Zposition Zrotation Xrotation Yrotation
  JOINT RightUpLeg
  {
    OFFSET -9.25892 -1.51126 0.0103963
    CHANNELS 3 Zrotation Xrotation Yrotation
    JOINT RightLeg
    {
      OFFSET -0.0493687 -41.9019 0.103893
      CHANNELS 3 Zrotation Xrotation Yrotation
      JOINT RightFoot
      {
        OFFSET -1.32222 -41.6903 -0.651221
        CHANNELS 3 Zrotation Xrotation Yrotation
        End Site
        {
          OFFSET 0 -7.69 17.5
        }
      }
    }
  }
  JOINT LeftUpLeg
  {
    OFFSET 9.27814 -1.57439 0.0532125
    CHANNELS 3 Zrotation Xrotation Yrotation
    JOINT LeftLeg
    {
      OFFSET 0.0812204 -41.881 0.0464493
      CHANNELS 3 Zrotation Xrotation Yrotation
      JOINT LeftFoot
      {
        OFFSET -0.0110097 -42.3775 0.673629
        CHANNELS 3 Zrotation Xrotation Yrotation
        End Site
        {
          OFFSET 0 -7.69 17.5
        }
      }
    }
  }
  JOINT Spine
  {
    OFFSET 0.0235844 14.3019 0.0112981
    CHANNELS 3 Zrotation Xrotation Yrotation
    JOINT Spine1
    {
      OFFSET 0.0175769 9.71285 0.00895779
      CHANNELS 3 Zrotation Xrotation Yrotation
      JOINT Spine2
      {
        OFFSET 0.0285364 10.1117 0.00103808
        CHANNELS 3 Zrotation Xrotation Yrotation
        JOINT Spine3
        {
          OFFSET 0.0259409 9.72657 0.0104237
          CHANNELS 3 Zrotation Xrotation Yrotation
          JOINT Neck
          {
            OFFSET -0.0111787 10.3773 0.0255796
            CHANNELS 3 Zrotation Xrotation Yrotation
            JOINT Head
            {
              OFFSET -0.00267722 9.48908 0.0510269
              CHANNELS 3 Zrotation Xrotation Yrotation
              End Site
              {
                OFFSET 0 15.95 0
              }
            }
          }
          JOINT RightShoulder
          {
            OFFSET -3.1909 6.94591 0.0199124
            CHANNELS 3 Zrotation Xrotation Yrotation
            JOINT RightArm
            {
              OFFSET -12.7524 0.0197095 0.0110528
              CHANNELS 3 Zrotation Xrotation Yrotation
              JOINT RightForeArm
              {
                OFFSET -26.4891 -0.0606575 0.0254635
                CHANNELS 3 Zrotation Xrotation Yrotation
                JOINT RightHand
                {
                  OFFSET -26.017 -0.0465962 -0.00264686
                  CHANNELS 3 Zrotation Xrotation Yrotation
                  JOINT RightHandThumb1
                  {
                    OFFSET -2.48905 0.190105 3.12053
                    CHANNELS 3 Zrotation Xrotation Yrotation
                    JOINT RightHandThumb2
                    {
                      OFFSET -3.68274 0 0
                      CHANNELS 3 Zrotation Xrotation Yrotation
                      JOINT RightHandThumb3
                      {
                        OFFSET -2.55832 0 0
                        CHANNELS 3 Zrotation Xrotation Yrotation
                        End Site
                        {
                          OFFSET -2.194 0 0
                        }
                      }
                    }
                  }
                  JOINT RightInHandIndex
                  {
                    OFFSET -3.22368 0.508421 1.97842
                    CHANNELS 3 Zrotation Xrotation Yrotation
                    JOINT RightHandIndex1
                    {
                      OFFSET -5.21684 -0.091368 0.999158
                      CHANNELS 3 Zrotation Xrotation Yrotation
                      JOINT RightHandIndex2
                      {
                        OFFSET -3.61937 0 0
                        CHANNELS 3 Zrotation Xrotation Yrotation
                        JOINT RightHandIndex3
                        {
                          OFFSET -2.0521 0 0
                          CHANNELS 3 Zrotation Xrotation Yrotation
                          End Site
                          {
                            OFFSET -1.805 0 0
                          }
                        }
                      }
                    }
                  }
                  JOINT RightInHandMiddle
                  {
                    OFFSET -3.38211 0.517263 0.756737
                    CHANNELS 3 Zrotation Xrotation Yrotation
                    JOINT RightHandMiddle1
                    {
                      OFFSET -5.17411 -0.084 0.313895
                      CHANNELS 3 Zrotation Xrotation Yrotation
                      JOINT RightHandMiddle2
                      {
                        OFFSET -3.94947 0 0
                        CHANNELS 3 Zrotation Xrotation Yrotation
                        JOINT RightHandMiddle3
                        {
                          OFFSET -2.47579 0 0
                          CHANNELS 3 Zrotation Xrotation Yrotation
                          End Site
                          {
                            OFFSET -1.975 0 0
                          }
                        }
                      }
                    }
                  }
                  JOINT RightInHandRing
                  {
                    OFFSET -3.36516 0.537895 -0.128947
                    CHANNELS 3 Zrotation Xrotation Yrotation
                    JOINT RightHandRing1
                    {
                      OFFSET -4.63474 -0.022105 -0.478947
                      CHANNELS 3 Zrotation Xrotation Yrotation
                      JOINT RightHandRing2
                      {
                        OFFSET -3.44238 0 0
                        CHANNELS 3 Zrotation Xrotation Yrotation
                        JOINT RightHandRing3
                        {
                          OFFSET -2.3881 0 0
                          CHANNELS 3 Zrotation Xrotation Yrotation
                          End Site
                          {
                            OFFSET -1.857 0 0
                          }
                        }
                      }
                    }
                  }
                  JOINT RightInHandPinky
                  {
                    OFFSET -3.16105 0.469368 -1.20179
                    CHANNELS 3 Zrotation Xrotation Yrotation
                    JOINT RightHandPinky1
                    {
                      OFFSET -4.14105 -0.022105 -1.09053
                      CHANNELS 3 Zrotation Xrotation Yrotation
                      JOINT RightHandPinky2
                      {
                        OFFSET -2.75653 0 0
                        CHANNELS 3 Zrotation Xrotation Yrotation
                        JOINT RightHandPinky3
                        {
                          OFFSET -1.74189 0 0
                          CHANNELS 3 Zrotation Xrotation Yrotation
                          End Site
                          {
                            OFFSET -1.645 0 0
                          }
                        }
                      }
                    }
                  }
                }
              }
            }
          }
          JOINT LeftShoulder
          {
            OFFSET 3.2161 6.92611 -0.00186679
            CHANNELS 3 Zrotation Xrotation Yrotation
            JOINT LeftArm
            {
              OFFSET 12.7484 -0.0283569 -0.0302446
              CHANNELS 3 Zrotation Xrotation Yrotation
              JOINT LeftForeArm
              {
                OFFSET 26.4766 -0.0880322 -0.0033192
                CHANNELS 3 Zrotation Xrotation Yrotation
                JOINT LeftHand
                {
                  OFFSET 26.0079 -0.0456134 -0.0735001
                  CHANNELS 3 Zrotation Xrotation Yrotation
                  JOINT LeftHandThumb1
                  {
                    OFFSET 2.48905 0.190105 3.12053
                    CHANNELS 3 Zrotation Xrotation Yrotation
                    JOINT LeftHandThumb2
                    {
                      OFFSET 3.68274 0 0
                      CHANNELS 3 Zrotation Xrotation Yrotation
                      JOINT LeftHandThumb3
                      {
                        OFFSET 2.55832 0 0
                        CHANNELS 3 Zrotation Xrotation Yrotation
                        End Site
                        {
                          OFFSET 2.194 0 0
                        }
                      }
                    }
                  }
                  JOINT LeftInHandIndex
                  {
                    OFFSET 3.22368 0.508421 1.97842
                    CHANNELS 3 Zrotation Xrotation Yrotation
                    JOINT LeftHandIndex1
                    {
                      OFFSET 5.21684 -0.091368 0.999158
                      CHANNELS 3 Zrotation Xrotation Yrotation
                      JOINT LeftHandIndex2
                      {
                        OFFSET 3.61937 0 0
                        CHANNELS 3 Zrotation Xrotation Yrotation
                        JOINT LeftHandIndex3
                        {
                          OFFSET 2.0521 0 0
                          CHANNELS 3 Zrotation Xrotation Yrotation
                          End Site
                          {
                            OFFSET 1.805 0 0
                          }
                        }
                      }
                    }
                  }
                  JOINT LeftInHandMiddle
                  {
                    OFFSET 3.38211 0.517263 0.756737
                    CHANNELS 3 Zrotation Xrotation Yrotation
                    JOINT LeftHandMiddle1
                    {
                      OFFSET 5.17411 -0.084 0.313895
                      CHANNELS 3 Zrotation Xrotation Yrotation
                      JOINT LeftHandMiddle2
                      {
                        OFFSET 3.94947 0 0
                        CHANNELS 3 Zrotation Xrotation Yrotation
                        JOINT LeftHandMiddle3
                        {
                          OFFSET 2.47579 0 0
                          CHANNELS 3 Zrotation Xrotation Yrotation
                          End Site
                          {
                            OFFSET 1.975 0 0
                          }
                        }
                      }
                    }
                  }
                  JOINT LeftInHandRing
                  {
                    OFFSET 3.36516 0.537895 -0.128947
                    CHANNELS 3 Zrotation Xrotation Yrotation
                    JOINT LeftHandRing1
                    {
                      OFFSET 4.63474 -0.022105 -0.478947
                      CHANNELS 3 Zrotation Xrotation Yrotation
                      JOINT LeftHandRing2
                      {
                        OFFSET 3.44238 0 0
                        CHANNELS 3 Zrotation Xrotation Yrotation
                        JOINT LeftHandRing3
                        {
                          OFFSET 2.3881 0 0
                          CHANNELS 3 Zrotation Xrotation Yrotation
                          End Site
                          {
                            OFFSET 1.857 0 0
                          }
                        }
                      }
                    }
                  }
                  JOINT LeftInHandPinky
                  {
                    OFFSET 3.16105 0.469368 -1.20179
                    CHANNELS 3 Zrotation Xrotation Yrotation
                    JOINT LeftHandPinky1
                    {
                      OFFSET 4.14105 -0.022105 -1.09053
                      CHANNELS 3 Zrotation Xrotation Yrotation
                      JOINT LeftHandPinky2
                      {
                        OFFSET 2.75653 0 0
                        CHANNELS 3 Zrotation Xrotation Yrotation
                        JOINT LeftHandPinky3
                        {
                          OFFSET 1.74189 0 0
                          CHANNELS 3 Zrotation Xrotation Yrotation
                          End Site
                          {
                            OFFSET 1.645 0 0
                          }
                        }
                      }
                    }
                  }
                }
              }
            }
          }
        }
      }
    }
  }
}
MOTION
Frames: 3
Frame Time: 0.00833333
3.000042276919219262e+02 1.790007191541715574e-03 -1.092637264143535986e-02 6.451045916214283131e-03 4.944251071848572432e-03 5.430115516491883232e-03 -6.979840231424424071e-03 1.109984197895502733e-02 -2.609595221422403646e-02 -2.321499640751159901e-02 -1.215585072817869719e-02 2.304810755305883654e-02 7.953834037102366222e-03 -1.059545401446474952e-02 -1.188674602104834374e-02 -2.592049690804694786e-02 -1.519082494235244642e-02 3.371279706121965009e-02 8.206497444222343729e-02 3.223671850877851686e-03 -1.018111302342935010e-01 3.134557190159364438e-03 -2.834604946795838028e-03 1.370252175793196074e-02 2.705055579617386685e-03 -3.674348137657249685e-02 -2.911678539724401049e-01 -3.321042922910634812e-03 -7.879300730967039174e-03 -7.665261055322074302e-02 -4.506798535321292730e-03 -2.378330191794362364e-02 -1.120477038738224851e-01 9.917815122394107834e-04 -5.861604250380908140e-03 1.533592149728999973e-02 -8.877781832952220953e-02 -3.382375534926456567e-02 6.290452853822495749e-01 7.505972906355098950e-02 1.123406601566258184e-01 -1.346901831391194293e-01 1.071531799797090928e-02 1.132048338491871767e-02 3.272003342466856535e-01 -2.359154450273455994e-01 2.592892546717819879e-01 -3.422763527114057736e-01 8.941862312466892782e-01 3.167343568958397304e-01 -6.012936162838851128e-01 1.962283863401375478e-02 8.330917568371952742e-01 1.606286933631748237e+00 0.000000000000000000e+00 0.000000000000000000e+00 0.000000000000000000e+00 2.403943384859416361e-16 2.030330551438791867e-15 0.000000000000000000e+00 -2.596483100515817384e-15 1.725913857640451528e-15 0.000000000000000000e+00 -1.083224805777608397e-15 1.165638556179836550e-15 1.687421282147979972e-15 0.000000000000000000e+00 0.000000000000000000e+00 0.000000000000000000e+00 0.000000000000000000e+00 -2.123950810372274488e-15 -4.584799539125483745e-15 0.000000000000000000e+00 -5.318267817195417191e-15 -5.419522721935244280e-15 -1.083224805777608397e-15 1.165638556179836550e-15 1.687421282147979972e-15 0.000000000000000000e+00 -9.214853978800370951e-17 1.167865480552731573e-15 0.000000000000000000e+00 -2.833579452688289547e-15 -6.708752181099146330e-15 0.000000000000000000e+00 -1.163715105886858333e-15 -9.257905086557636515e-15 -1.083224805777608397e-15 1.165638556179836550e-15 1.687421282147979972e-15 0.000000000000000000e+00 0.000000000000000000e+00 0.000000000000000000e+00 0.000000000000000000e+00 5.396695049749238882e-15 -9.631846418679305998e-15 0.000000000000000000e+00 -2.928059279634599852e-15 -1.112174389467089831e-14 -1.083224805777608397e-15 1.165638556179836550e-15 1.687421282147979972e-15 0.000000000000000000e+00 0.000000000000000000e+00 0.000000000000000000e+00 0.000000000000000000e+00 -3.137559126624011584e-15 -7.056816521960437670e-15 0.000000000000000000e+00 -3.340563850281296054e-16 -1.111443854451135853e-14 1.878583987258778121e-01 1.151282566380844863e-01 5.203081947471798197e-01 7.446297487326114517e-02 -4.052761091049443543e-02 -1.028180878621294675e-01 3.907697915661620391e-02 -1.265506039841702950e-02 1.036923728117431776e-01 -5.439745313253113723e-02 -4.587989747006175900e-01 9.852807738418575823e-02 0.000000000000000000e+00 0.000000000000000000e+00 0.000000000000000000e+00 -2.635116781938730100e-15 -6.376943934451105969e-16 0.000000000000000000e+00 -9.738970930131355196e-16 4.008178925375477062e-15 0.000000000000000000e+00 -2.755255129591316228e-15 -1.252381318969384988e-16 -6.749177339551838886e-15 0.000000000000000000e+00 0.000000000000000000e+00 0.000000000000000000e+00 0.000000000000000000e+00 -4.336511288880797772e-15 1.873712471716997352e-15 0.000000000000000000e+00 -6.156077133768667960e-15 -4.830304428692983312e-16 -2.755255129591316228e-15 -1.252381318969384988e-16 -6.749177339551838886e-15 0.000000000000000000e+00 -3.496009181481636909e-15 2.495420696718254326e-15 0.000000000000000000e+00 -6.852398041019924809e-15 1.078523017111354925e-15 0.000000000000000000e+00 1.809573931107483028e-15 1.512727569670587141e-15 -2.755255129591316228e-15 -1.252381318969384988e-16 -6.749177339551838886e-15 0.000000000000000000e+00 0.000000000000000000e+00 0.000000000000000000e+00 0.000000000000000000e+00 7.784518373011586577e-16 2.571718520630100851e-15 0.000000000000000000e+00 -2.405733148786691667e-15 4.490143406298318525e-15 -2.755255129591316228e-15 -1.252381318969384988e-16 -6.749177339551838886e-15 0.000000000000000000e+00 0.000000000000000000e+00 0.000000000000000000e+00 0.000000000000000000e+00 -4.176975706158760414e-15 2.233186619030501902e-15 0.000000000000000000e+00 -2.149072609236669745e-15 1.401569190446706650e-15
3.000015344480103181e+02 2.352740420248344237e-03 -1.819425524785329984e-02 6.067296183654145511e-03 -2.270677980229608012e-03 4.528926572661338447e-03 -9.872299599471142176e-03 3.883009413416789284e-03 -5.391318417989113265e-02 -3.907303312724058619e-02 -1.628298298115025619e-02 4.726418611379068491e-02 6.152742307417523836e-03 -3.538800364927806655e-03 3.083436080851974584e-02 -3.327474187046107479e-02 -1.344120824996702761e-02 -1.695057558163543671e-02 3.206302856240974414e-02 -2.419724804459131087e-03 -5.274243379629398043e-02 8.963105962315089451e-03 -1.525362235043921030e-02 3.361968646101165525e-02 -9.582455598860159518e-03 -5.997772815130318624e-02 -3.453416410062249420e-01 -7.509866714863170853e-03 -4.025251033941803884e-03 -9.030045949932220817e-02 -1.103634347002203399e-02 -3.684595012435384898e-02 -1.329799011287414456e-01 1.742951628328518951e-03 -4.923637857887586296e-03 2.035342726432892019e-02 -1.033884619800433391e-01 -4.017902657527625682e-02 8.437093453560153833e-01 1.190145226770413234e-01 2.034538172905158981e-01 -1.815322691555943391e-01 1.599428783846061977e-02 -1.225018236506974188e-02 3.516527555354106438e-01 -1.505874426103151476e-01 5.330055085201339526e-01 -2.718375765131555433e-01 7.632567279844063579e-01 8.281559322078785312e-02 -5.212150169400000532e-01 -1.652836303726201717e-03 7.495047619415415863e-01 1.706587744645651883e+00 0.000000000000000000e+00 0.000000000000000000e+00 0.000000000000000000e+00 -5.203475065199955729e-15 1.517589729920752141e-15 0.000000000000000000e+00 -6.402105393592039729e-15 3.844786209748873621e-16 0.000000000000000000e+00 -8.508699993710301408e-17 1.356273723199558121e-16 7.576874178442780914e-16 0.000000000000000000e+00 0.000000000000000000e+00 0.000000000000000000e+00 0.000000000000000000e+00 -2.106602616320404728e-15 -4.448368359362393353e-15 0.000000000000000000e+00 -4.083976130715933532e-15 -4.835464356678737709e-15 -8.508699993710301408e-17 1.356273723199558121e-16 7.576874178442780914e-16 0.000000000000000000e+00 -7.705269931537062967e-17 3.387395334766003574e-15 0.000000000000000000e+00 -5.545300490024523625e-15 -5.775216389112380667e-15 0.000000000000000000e+00 -2.023659920219029840e-15 -8.741834666346799588e-15 -8.508699993710301408e-17 1.356273723199558121e-16 7.576874178442780914e-16 0.000000000000000000e+00 0.000000000000000000e+00 0.000000000000000000e+00 0.000000000000000000e+00 4.395570458772972288e-15 -7.739307577574107931e-15 0.000000000000000000e+00 -2.525558676544798507e-15 -1.039799172324255640e-14 -8.508699993710301408e-17 1.356273723199558121e-16 7.576874178442780914e-16 0.000000000000000000e+00 0.000000000000000000e+00 0.000000000000000000e+00 0.000000000000000000e+00 -1.630046900242471681e-15 -6.597247622060059865e-15 0.000000000000000000e+00 1.369697094357191250e-15 -1.330781781794514885e-14 2.253679724977008247e-01 1.324028236027655625e-01 5.621656671513411974e-01 1.465492686675615858e-02 -4.508046246847767502e-02 -2.412889381540043315e-02 2.166985883123019596e-01 1.799211349438462060e-01 -5.501207091306345998e-01 -5.150981253241222468e-01 -1.408282321152762862e-01 4.580579526304383586e-01 0.000000000000000000e+00 0.000000000000000000e+00 0.000000000000000000e+00 5.585488308164800968e-16 -4.217365065752767596e-15 0.000000000000000000e+00 2.381855087036153250e-16 -1.600855984725760077e-15 0.000000000000000000e+00 -3.078809421547829637e-15 -2.261180218252734876e-16 -4.969266823144641912e-15 0.000000000000000000e+00 0.000000000000000000e+00 0.000000000000000000e+00 0.000000000000000000e+00 -5.267898391748046901e-15 9.101033075057015252e-17 0.000000000000000000e+00 -2.734966521833232854e-15 -3.198015361712261835e-16 -3.078809421547829637e-15 -2.261180218252734876e-16 -4.969266823144641912e-15 0.000000000000000000e+00 -2.076659103554207157e-15 1.049138834631325400e-15 0.000000000000000000e+00 -3.601560652056451492e-15 1.259142988596267664e-16 0.000000000000000000e+00 3.727510451405349014e-15 2.453889808771946069e-16 -3.078809421547829637e-15 -2.261180218252734876e-16 -4.969266823144641912e-15 0.000000000000000000e+00 0.000000000000000000e+00 0.000000000000000000e+00 0.000000000000000000e+00 6.740387851301667088e-16 2.119072599661363966e-15 0.000000000000000000e+00 -1.001992051855427634e-15 1.489140867962581346e-15 -3.078809421547829637e-15 -2.261180218252734876e-16 -4.969266823144641912e-15 0.000000000000000000e+00 0.000000000000000000e+00 0.000000000000000000e+00 0.000000000000000000e+00 -2.253206983362691122e-15 1.315750776296231184e-15 0.000000000000000000e+00 -1.851731096748277104e-15 9.284162579446515965e-16
2.999989501527932703e+02 3.215955624754918748e-03 -2.567601380851996726e-02 9.364007764277016387e-04 -1.046789982220768661e-02 7.211088227008666252e-03 -1.948374274612451815e-02 -8.311019248256334979e-03 -8.554481481580836211e-02 -5.946624745721515448e-02 -1.055754880143042369e-02 6.129357456647020058e-02 1.158658222090756459e-02 1.143634752136599240e-03 6.980306441820360863e-02 -4.270739842639401096e-02 1.238681281257800366e-02 -1.551214076712512657e-01 -1.199977782263560583e-01 -3.452412921411524699e-02 1.185601983928110809e-01 1.222289270136112452e-02 -2.556284947290176843e-02 4.819952732084836766e-02 -2.708990266109996548e-02 -7.563758861217145801e-02 -3.686766087931823144e-01 -1.259897526881238218e-02 3.015903106740704716e-04 -9.628737088553020185e-02 -1.914179665608731207e-02 -4.682764059972643195e-02 -1.430032416551637875e-01 2.436209756284493742e-03 -4.861806615088813850e-03 2.262272747714071108e-02 -1.055120418012015782e-01 -3.998363218412921694e-02 9.119320189053625736e-01 1.568811790314031951e-01 2.272445388538384958e-01 -1.849484582699586488e-01 1.445599882932973451e-02 -2.212487526762815099e-02 3.156645725307775097e-01 -6.187481543214539553e-02 7.702305780892695353e-01 -1.946883012494480814e-01 3.925830309505176641e-01 -2.440361264768101113e-01 -2.298957798689152954e-01 -2.487647046713949844e-02 4.407594555308915196e-01 1.431122701711324163e+00 0.000000000000000000e+00 0.000000000000000000e+00 0.000000000000000000e+00 -1.160243043813586823e-14 -1.026641836858653242e-15 0.000000000000000000e+00 -7.570396926623786428e-15 -7.237082509123564877e-16 0.000000000000000000e+00 2.615884226652343267e-16 -2.871431784508095502e-17 -1.382091857220424542e-15 0.000000000000000000e+00 0.000000000000000000e+00 0.000000000000000000e+00 0.000000000000000000e+00 -2.235168079797624777e-15 -2.934823137455931131e-15 0.000000000000000000e+00 -1.098651237587506357e-15 -2.831990560338367283e-15 2.615884226652343267e-16 -2.871431784508095502e-17 -1.382091857220424542e-15 0.000000000000000000e+00 -1.658195624008353528e-15 2.880766238974624353e-15 0.000000000000000000e+00 -5.471778097360063853e-15 2.866140840227751996e-17 0.000000000000000000e+00 -1.720859025259090616e-15 -2.154062571264428139e-15 2.615884226652343267e-16 -2.871431784508095502e-17 -1.382091857220424542e-15 0.000000000000000000e+00 0.000000000000000000e+00 0.000000000000000000e+00 0.000000000000000000e+00 2.830324244838411934e-15 -2.509442851903552020e-15 0.000000000000000000e+00 -8.864903980533734627e-16 -4.548948688886137997e-15 2.615884226652343267e-16 -2.871431784508095502e-17 -1.382091857220424542e-15 0.000000000000000000e+00 0.000000000000000000e+00 0.000000000000000000e+00 0.000000000000000000e+00 1.574593417103601871e-16 -3.221354633730025576e-15 0.000000000000000000e+00 2.369913420493880237e-15 -8.795902312624516945e-15 2.462413155767051720e-01 1.324777752754621729e-01 5.467043049479035632e-01 -6.428120752687296879e-02 -2.906624557162668099e-02 6.634325208220231973e-02 2.651075956001174849e-01 3.373603536553957949e-01 -8.055978409377555494e-01 -8.067210729545670755e-01 1.282562787059343401e-01 4.184898784010638861e-01 0.000000000000000000e+00 0.000000000000000000e+00 0.000000000000000000e+00 2.999914098486171111e-15 -7.288251220292555998e-15 0.000000000000000000e+00 5.652026414383918285e-16 -8.956502378097301277e-15 0.000000000000000000e+00 -2.203653221767518624e-15 -2.869405036512943634e-16 5.098367036088665909e-16 0.000000000000000000e+00 0.000000000000000000e+00 0.000000000000000000e+00 0.000000000000000000e+00 -2.199995028743276303e-15 -2.416755269718029078e-15 0.000000000000000000e+00 2.185979423479832475e-15 -7.724588408958396589e-16 -2.203653221767518624e-15 -2.869405036512943634e-16 5.098367036088665909e-16 0.000000000000000000e+00 -2.029404487035821605e-16 -1.767122406519846605e-15 0.000000000000000000e+00 1.689675262217994198e-15 -3.743727994221810174e-15 0.000000000000000000e+00 6.069278260650553871e-17 -1.165476229915126698e-15 -2.203653221767518624e-15 -2.869405036512943634e-16 5.098367036088665909e-16 0.000000000000000000e+00 0.000000000000000000e+00 0.000000000000000000e+00 0.000000000000000000e+00 -1.044557135649124925e-15 9.998295076213041353e-16 0.000000000000000000e+00 3.408213731258465400e-15 -2.557918862242276941e-15 -2.203653221767518624e-15 -2.869405036512943634e-16 5.098367036088665909e-16 0.000000000000000000e+00 0.000000000000000000e+00 0.000000000000000000e+00 0.000000000000000000e+00 -8.214094518681090731e-16 -1.726257817824883262e-15 0.000000000000000000e+00 -1.850829774239384834e-15 1.074809462805049853e-15
